<svg width="7" height="6" viewBox="0 0 7 6" fill="none" xmlns="http://www.w3.org/2000/svg">
<path d="M2.25 4.5L5.9375 0.8125C6.05208 0.697916 6.19792 0.640625 6.375 0.640625C6.55208 0.640625 6.69792 0.697916 6.8125 0.8125C6.92708 0.927083 6.98437 1.07292 6.98437 1.25C6.98437 1.42708 6.92708 1.57292 6.8125 1.6875L2.6875 5.8125C2.5625 5.9375 2.41667 6 2.25 6C2.08333 6 1.9375 5.9375 1.8125 5.8125L0.1875 4.1875C0.0729164 4.07292 0.015625 3.92708 0.015625 3.75C0.015625 3.57292 0.0729164 3.42708 0.1875 3.3125C0.302083 3.19792 0.447917 3.14062 0.625 3.14062C0.802083 3.14062 0.947917 3.19792 1.0625 3.3125L2.25 4.5Z" fill="#EAEAEA"/>
</svg>
